<svg width="732" height="732" xmlns="http://www.w3.org/2000/svg" xmlns:xlink="http://www.w3.org/1999/xlink" overflow="hidden"><defs><clipPath id="clip0"><rect x="594" y="174" width="732" height="732"></rect></clipPath><linearGradient x1="733" y1="369" x2="1180" y2="369" gradientUnits="userSpaceOnUse" spreadMethod="reflect" id="fill1"><stop offset="0" stop-color="#F645B9"></stop><stop offset="0.61" stop-color="#783BFF"></stop><stop offset="1" stop-color="#783BFF"></stop></linearGradient><linearGradient x1="1211.23" y1="343.204" x2="876.771" y2="741.796" gradientUnits="userSpaceOnUse" spreadMethod="reflect" id="fill2"><stop offset="0" stop-color="#33E6AF"></stop><stop offset="0.85" stop-color="#0264FF"></stop><stop offset="1" stop-color="#0264FF"></stop></linearGradient></defs><g clip-path="url(#clip0)" transform="translate(-594 -174)"><rect x="595" y="175" width="730" height="730" fill="#FFFFFF"></rect><rect x="733" y="317" width="447" height="104" fill="url(#fill1)"></rect><path d="M1071.76 317 1180 317 1180 420.696 1113.91 420.696 1113.91 420.722 1113.34 420.695C1058.82 420.695 1013.98 458.649 1008.59 507.286 1008.54 508.159 1008.49 509.032 1008.44 509.904 1008.31 595.936 1008.18 681.968 1008.04 768L908 768 908 509.904 909.133 492.217C918.128 410.4 979.764 342.959 1062.26 319.256L1071.76 317Z" fill="url(#fill2)" fill-rule="evenodd"></path></g></svg>